<svg width="1204" height="444" viewBox="0 0 1204 444" fill="none" xmlns="http://www.w3.org/2000/svg">
<g filter="url(#filter0_i_6_177)">
<path d="M89.7827 403.507L164.783 283.507L89.7827 283.507L164.783 183.507L89.7827 183.507L169.783 44.0074L269.783 44.0074L182.783 143.507L269.783 143.507L182.783 243.507L269.783 243.507L89.7827 403.507Z" fill="url(#paint0_linear_6_177)"/>
</g>
<path d="M397.699 160.843V124.593H475.949V160.843H397.699ZM397.699 229.343V195.343H473.449V229.343H397.699ZM369.699 124.593H410.199V299.593H369.699V124.593Z" fill="url(#paint1_linear_6_177)"/>
<path d="M533.383 263.593C533.383 266.593 534.133 269.177 535.633 271.343C537.133 273.343 539.133 274.927 541.633 276.093C544.133 277.093 546.883 277.593 549.883 277.593C554.216 277.593 558.216 276.677 561.883 274.843C565.549 273.01 568.549 270.26 570.883 266.593C573.216 262.927 574.383 258.427 574.383 253.093L578.383 268.093C578.383 275.427 576.383 281.677 572.383 286.843C568.383 291.843 563.216 295.677 556.883 298.343C550.549 300.843 543.716 302.093 536.383 302.093C529.049 302.093 522.216 300.76 515.883 298.093C509.716 295.26 504.716 291.093 500.883 285.593C497.216 280.093 495.383 273.427 495.383 265.593C495.383 254.593 499.299 245.927 507.133 239.593C514.966 233.093 526.049 229.843 540.383 229.843C547.383 229.843 553.633 230.51 559.133 231.843C564.799 233.177 569.633 234.843 573.633 236.843C577.633 238.843 580.633 240.927 582.633 243.093V259.843C578.633 256.843 573.966 254.593 568.633 253.093C563.466 251.427 557.966 250.593 552.133 250.593C547.633 250.593 544.049 251.093 541.383 252.093C538.716 253.093 536.716 254.593 535.383 256.593C534.049 258.427 533.383 260.76 533.383 263.593ZM516.633 219.843L503.883 194.593C510.383 191.427 518.216 188.427 527.383 185.593C536.549 182.76 546.549 181.343 557.383 181.343C567.549 181.343 576.633 182.843 584.633 185.843C592.633 188.677 598.966 192.843 603.633 198.343C608.299 203.843 610.633 210.593 610.633 218.593V299.593H574.383V227.093C574.383 224.26 573.883 221.843 572.883 219.843C572.049 217.677 570.716 215.843 568.883 214.343C567.049 212.843 564.716 211.76 561.883 211.093C559.216 210.427 556.133 210.093 552.633 210.093C547.466 210.093 542.383 210.677 537.383 211.843C532.549 213.01 528.299 214.427 524.633 216.093C520.966 217.593 518.299 218.843 516.633 219.843ZM645.148 257.843C650.982 262.677 656.232 266.51 660.898 269.343C665.732 272.01 669.982 273.927 673.648 275.093C677.315 276.093 680.482 276.593 683.148 276.593C686.982 276.593 689.815 275.76 691.648 274.093C693.482 272.427 694.398 270.26 694.398 267.593C694.398 265.093 693.648 263.01 692.148 261.343C690.648 259.51 688.065 257.76 684.398 256.093C680.898 254.427 676.065 252.677 669.898 250.843C664.398 248.843 659.148 246.51 654.148 243.843C649.315 241.01 645.315 237.26 642.148 232.593C638.982 227.927 637.398 221.927 637.398 214.593C637.398 207.593 639.232 201.677 642.898 196.843C646.732 192.01 651.815 188.343 658.148 185.843C664.648 183.343 672.065 182.093 680.398 182.093C687.065 182.093 693.232 182.843 698.898 184.343C704.732 185.843 710.148 187.843 715.148 190.343C720.315 192.843 725.148 195.76 729.648 199.093L716.148 223.593C711.315 219.093 705.815 215.427 699.648 212.593C693.482 209.593 687.815 208.093 682.648 208.093C679.148 208.093 676.482 208.76 674.648 210.093C672.982 211.427 672.148 213.177 672.148 215.343C672.148 217.843 673.148 219.927 675.148 221.593C677.315 223.26 680.315 224.843 684.148 226.343C688.148 227.677 692.982 229.427 698.648 231.593C704.648 233.76 710.148 236.26 715.148 239.093C720.315 241.927 724.398 245.51 727.398 249.843C730.565 254.177 732.148 259.927 732.148 267.093C732.148 279.427 728.315 288.76 720.648 295.093C713.148 301.26 702.482 304.343 688.648 304.343C680.482 304.343 672.815 303.343 665.648 301.343C658.648 299.51 652.148 297.01 646.148 293.843C640.148 290.51 634.565 286.843 629.398 282.843L645.148 257.843ZM739.412 184.593H816.412V215.843H739.412V184.593ZM759.662 144.593H795.912V299.593H759.662V144.593ZM799.752 315.593C802.252 317.76 805.335 319.677 809.002 321.343C812.669 323.01 816.335 323.843 820.002 323.843C823.835 323.843 827.502 322.26 831.002 319.093C834.502 316.093 836.252 310.927 836.252 303.593V124.593H881.752V313.093C881.752 321.427 880.252 328.51 877.252 334.343C874.252 340.343 870.085 345.093 864.752 348.593C859.419 352.26 853.252 354.927 846.252 356.593C839.252 358.427 831.919 359.343 824.252 359.343C817.752 359.343 811.502 358.593 805.502 357.093C799.502 355.593 794.085 353.76 789.252 351.593C784.419 349.593 780.252 347.427 776.752 345.093L799.752 315.593ZM908.271 242.093C908.271 229.927 911.105 219.343 916.771 210.343C922.438 201.343 930.271 194.343 940.271 189.343C950.271 184.343 961.521 181.843 974.021 181.843C986.521 181.843 997.688 184.343 1007.52 189.343C1017.52 194.343 1025.35 201.343 1031.02 210.343C1036.85 219.343 1039.77 229.927 1039.77 242.093C1039.77 254.093 1036.85 264.593 1031.02 273.593C1025.35 282.593 1017.52 289.593 1007.52 294.593C997.688 299.593 986.521 302.093 974.021 302.093C961.521 302.093 950.271 299.593 940.271 294.593C930.271 289.593 922.438 282.593 916.771 273.593C911.105 264.593 908.271 254.093 908.271 242.093ZM947.021 242.093C947.021 248.093 948.271 253.26 950.771 257.593C953.271 261.76 956.521 265.01 960.521 267.343C964.521 269.677 969.021 270.843 974.021 270.843C978.855 270.843 983.271 269.677 987.271 267.343C991.438 265.01 994.688 261.76 997.021 257.593C999.521 253.26 1000.77 248.093 1000.77 242.093C1000.77 236.093 999.521 230.927 997.021 226.593C994.688 222.26 991.438 218.927 987.271 216.593C983.271 214.26 978.855 213.093 974.021 213.093C969.021 213.093 964.521 214.26 960.521 216.593C956.521 218.927 953.271 222.26 950.771 226.593C948.271 230.927 947.021 236.093 947.021 242.093ZM1099.74 104.593V299.593H1061.99V104.593H1099.74ZM1193.74 242.093C1193.74 254.927 1191.07 265.843 1185.74 274.843C1180.57 283.677 1173.82 290.427 1165.49 295.093C1157.32 299.76 1148.49 302.093 1138.99 302.093C1129.49 302.093 1120.99 299.677 1113.49 294.843C1105.99 290.01 1100.07 283.093 1095.74 274.093C1091.4 265.093 1089.24 254.427 1089.24 242.093C1089.24 229.593 1091.4 218.927 1095.74 210.093C1100.07 201.093 1105.99 194.177 1113.49 189.343C1120.99 184.51 1129.49 182.093 1138.99 182.093C1148.49 182.093 1157.32 184.427 1165.49 189.093C1173.82 193.76 1180.57 200.51 1185.74 209.343C1191.07 218.177 1193.74 229.093 1193.74 242.093ZM1153.99 242.093C1153.99 236.093 1152.74 230.927 1150.24 226.593C1147.74 222.093 1144.4 218.677 1140.24 216.343C1136.07 213.843 1131.49 212.593 1126.49 212.593C1122.15 212.593 1117.9 213.76 1113.74 216.093C1109.74 218.427 1106.4 221.843 1103.74 226.343C1101.07 230.677 1099.74 235.927 1099.74 242.093C1099.74 248.26 1101.07 253.593 1103.74 258.093C1106.4 262.427 1109.74 265.76 1113.74 268.093C1117.9 270.427 1122.15 271.593 1126.49 271.593C1131.49 271.593 1136.07 270.427 1140.24 268.093C1144.4 265.593 1147.74 262.177 1150.24 257.843C1152.74 253.343 1153.99 248.093 1153.99 242.093Z" fill="#111111"/>
<defs>
<filter id="filter0_i_6_177" x="89.7827" y="44.0073" width="180" height="363.5" filterUnits="userSpaceOnUse" color-interpolation-filters="sRGB">
<feFlood flood-opacity="0" result="BackgroundImageFix"/>
<feBlend mode="normal" in="SourceGraphic" in2="BackgroundImageFix" result="shape"/>
<feColorMatrix in="SourceAlpha" type="matrix" values="0 0 0 0 0 0 0 0 0 0 0 0 0 0 0 0 0 0 127 0" result="hardAlpha"/>
<feOffset dy="4"/>
<feGaussianBlur stdDeviation="2"/>
<feComposite in2="hardAlpha" operator="arithmetic" k2="-1" k3="1"/>
<feColorMatrix type="matrix" values="0 0 0 0 0 0 0 0 0 0 0 0 0 0 0 0 0 0 0.25 0"/>
<feBlend mode="normal" in2="shape" result="effect1_innerShadow_6_177"/>
</filter>
<linearGradient id="paint0_linear_6_177" x1="0" y1="357.061" x2="339.48" y2="371.025" gradientUnits="userSpaceOnUse">
<stop stop-color="#007456"/>
<stop offset="1" stop-color="#6CFF95"/>
</linearGradient>
<linearGradient id="paint1_linear_6_177" x1="311.186" y1="243" x2="539.969" y2="168.029" gradientUnits="userSpaceOnUse">
<stop stop-color="#007456"/>
<stop offset="1" stop-color="#6CFF95"/>
</linearGradient>
</defs>
</svg>
