<svg width="1600" height="444" viewBox="0 0 1600 444" fill="none" xmlns="http://www.w3.org/2000/svg">
<g filter="url(#filter0_d_14_5)">
<path d="M89.7827 403.507L164.783 283.507L89.7827 283.507L164.783 183.507L89.7827 183.507L169.783 44.0074L269.783 44.0074L182.783 143.507L269.783 143.507L182.783 243.507L269.783 243.507L89.7827 403.507Z" fill="url(#paint0_linear_14_5)"/>
</g>
<path d="M397.699 169.343V133.093H475.949V169.343H397.699ZM397.699 237.843V203.843H473.449V237.843H397.699ZM369.699 133.093H410.199V308.093H369.699V133.093Z" fill="url(#paint1_linear_14_5)"/>
<path d="M533.383 272.093C533.383 275.093 534.133 277.677 535.633 279.843C537.133 281.843 539.133 283.427 541.633 284.593C544.133 285.593 546.883 286.093 549.883 286.093C554.216 286.093 558.216 285.177 561.883 283.343C565.549 281.51 568.549 278.76 570.883 275.093C573.216 271.427 574.383 266.927 574.383 261.593L578.383 276.593C578.383 283.927 576.383 290.177 572.383 295.343C568.383 300.343 563.216 304.177 556.883 306.843C550.549 309.343 543.716 310.593 536.383 310.593C529.049 310.593 522.216 309.26 515.883 306.593C509.716 303.76 504.716 299.593 500.883 294.093C497.216 288.593 495.383 281.927 495.383 274.093C495.383 263.093 499.299 254.427 507.133 248.093C514.966 241.593 526.049 238.343 540.383 238.343C547.383 238.343 553.633 239.01 559.133 240.343C564.799 241.677 569.633 243.343 573.633 245.343C577.633 247.343 580.633 249.427 582.633 251.593V268.343C578.633 265.343 573.966 263.093 568.633 261.593C563.466 259.927 557.966 259.093 552.133 259.093C547.633 259.093 544.049 259.593 541.383 260.593C538.716 261.593 536.716 263.093 535.383 265.093C534.049 266.927 533.383 269.26 533.383 272.093ZM516.633 228.343L503.883 203.093C510.383 199.927 518.216 196.927 527.383 194.093C536.549 191.26 546.549 189.843 557.383 189.843C567.549 189.843 576.633 191.343 584.633 194.343C592.633 197.177 598.966 201.343 603.633 206.843C608.299 212.343 610.633 219.093 610.633 227.093V308.093H574.383V235.593C574.383 232.76 573.883 230.343 572.883 228.343C572.049 226.177 570.716 224.343 568.883 222.843C567.049 221.343 564.716 220.26 561.883 219.593C559.216 218.927 556.133 218.593 552.633 218.593C547.466 218.593 542.383 219.177 537.383 220.343C532.549 221.51 528.299 222.927 524.633 224.593C520.966 226.093 518.299 227.343 516.633 228.343ZM645.148 266.343C650.982 271.177 656.232 275.01 660.898 277.843C665.732 280.51 669.982 282.427 673.648 283.593C677.315 284.593 680.482 285.093 683.148 285.093C686.982 285.093 689.815 284.26 691.648 282.593C693.482 280.927 694.398 278.76 694.398 276.093C694.398 273.593 693.648 271.51 692.148 269.843C690.648 268.01 688.065 266.26 684.398 264.593C680.898 262.927 676.065 261.177 669.898 259.343C664.398 257.343 659.148 255.01 654.148 252.343C649.315 249.51 645.315 245.76 642.148 241.093C638.982 236.427 637.398 230.427 637.398 223.093C637.398 216.093 639.232 210.177 642.898 205.343C646.732 200.51 651.815 196.843 658.148 194.343C664.648 191.843 672.065 190.593 680.398 190.593C687.065 190.593 693.232 191.343 698.898 192.843C704.732 194.343 710.148 196.343 715.148 198.843C720.315 201.343 725.148 204.26 729.648 207.593L716.148 232.093C711.315 227.593 705.815 223.927 699.648 221.093C693.482 218.093 687.815 216.593 682.648 216.593C679.148 216.593 676.482 217.26 674.648 218.593C672.982 219.927 672.148 221.677 672.148 223.843C672.148 226.343 673.148 228.427 675.148 230.093C677.315 231.76 680.315 233.343 684.148 234.843C688.148 236.177 692.982 237.927 698.648 240.093C704.648 242.26 710.148 244.76 715.148 247.593C720.315 250.427 724.398 254.01 727.398 258.343C730.565 262.677 732.148 268.427 732.148 275.593C732.148 287.927 728.315 297.26 720.648 303.593C713.148 309.76 702.482 312.843 688.648 312.843C680.482 312.843 672.815 311.843 665.648 309.843C658.648 308.01 652.148 305.51 646.148 302.343C640.148 299.01 634.565 295.343 629.398 291.343L645.148 266.343ZM739.412 193.093H816.412V224.343H739.412V193.093ZM759.662 153.093H795.912V308.093H759.662V153.093ZM872.252 220.593C872.252 231.26 874.669 240.51 879.502 248.343C884.335 256.01 890.669 261.843 898.502 265.843C906.502 269.843 915.252 271.843 924.752 271.843C933.085 271.843 940.419 270.76 946.752 268.593C953.085 266.427 958.752 263.593 963.752 260.093C968.752 256.593 973.169 252.843 977.002 248.843V294.343C970.002 299.843 962.335 304.177 954.002 307.343C945.669 310.51 935.085 312.093 922.252 312.093C908.252 312.093 895.335 309.927 883.502 305.593C871.669 301.26 861.502 295.01 853.002 286.843C844.502 278.677 837.919 269.01 833.252 257.843C828.585 246.677 826.252 234.26 826.252 220.593C826.252 206.927 828.585 194.51 833.252 183.343C837.919 172.177 844.502 162.51 853.002 154.343C861.502 146.177 871.669 139.927 883.502 135.593C895.335 131.26 908.252 129.093 922.252 129.093C935.085 129.093 945.669 130.677 954.002 133.843C962.335 137.01 970.002 141.343 977.002 146.843V192.343C973.169 188.343 968.752 184.593 963.752 181.093C958.752 177.427 953.085 174.593 946.752 172.593C940.419 170.427 933.085 169.343 924.752 169.343C915.252 169.343 906.502 171.343 898.502 175.343C890.669 179.343 884.335 185.177 879.502 192.843C874.669 200.51 872.252 209.76 872.252 220.593ZM1001.04 250.593C1001.04 238.427 1003.88 227.843 1009.54 218.843C1015.21 209.843 1023.04 202.843 1033.04 197.843C1043.04 192.843 1054.29 190.343 1066.79 190.343C1079.29 190.343 1090.46 192.843 1100.29 197.843C1110.29 202.843 1118.13 209.843 1123.79 218.843C1129.63 227.843 1132.54 238.427 1132.54 250.593C1132.54 262.593 1129.63 273.093 1123.79 282.093C1118.13 291.093 1110.29 298.093 1100.29 303.093C1090.46 308.093 1079.29 310.593 1066.79 310.593C1054.29 310.593 1043.04 308.093 1033.04 303.093C1023.04 298.093 1015.21 291.093 1009.54 282.093C1003.88 273.093 1001.04 262.593 1001.04 250.593ZM1039.79 250.593C1039.79 256.593 1041.04 261.76 1043.54 266.093C1046.04 270.26 1049.29 273.51 1053.29 275.843C1057.29 278.177 1061.79 279.343 1066.79 279.343C1071.63 279.343 1076.04 278.177 1080.04 275.843C1084.21 273.51 1087.46 270.26 1089.79 266.093C1092.29 261.76 1093.54 256.593 1093.54 250.593C1093.54 244.593 1092.29 239.427 1089.79 235.093C1087.46 230.76 1084.21 227.427 1080.04 225.093C1076.04 222.76 1071.63 221.593 1066.79 221.593C1061.79 221.593 1057.29 222.76 1053.29 225.093C1049.29 227.427 1046.04 230.76 1043.54 235.093C1041.04 239.427 1039.79 244.593 1039.79 250.593ZM1144.76 193.093H1223.26V224.343H1144.76V193.093ZM1219.01 149.343C1217.35 147.177 1215.51 145.593 1213.51 144.593C1211.68 143.593 1209.68 143.093 1207.51 143.093C1205.01 143.093 1202.85 143.677 1201.01 144.843C1199.35 146.01 1198.01 147.843 1197.01 150.343C1196.01 152.843 1195.51 156.093 1195.51 160.093V308.093H1159.26V150.593C1159.26 141.927 1160.85 134.51 1164.01 128.343C1167.35 122.177 1172.18 117.427 1178.51 114.093C1185.01 110.76 1193.01 109.093 1202.51 109.093C1208.18 109.093 1213.01 109.843 1217.01 111.343C1221.18 112.677 1224.68 114.343 1227.51 116.343C1230.35 118.177 1232.6 119.927 1234.26 121.593L1219.01 149.343ZM1230.7 193.093H1309.2V224.343H1230.7V193.093ZM1304.95 149.343C1303.28 147.177 1301.45 145.593 1299.45 144.593C1297.62 143.593 1295.62 143.093 1293.45 143.093C1290.95 143.093 1288.78 143.677 1286.95 144.843C1285.28 146.01 1283.95 147.843 1282.95 150.343C1281.95 152.843 1281.45 156.093 1281.45 160.093V308.093H1245.2V150.593C1245.2 141.927 1246.78 134.51 1249.95 128.343C1253.28 122.177 1258.12 117.427 1264.45 114.093C1270.95 110.76 1278.95 109.093 1288.45 109.093C1294.12 109.093 1298.95 109.843 1302.95 111.343C1307.12 112.677 1310.62 114.343 1313.45 116.343C1316.28 118.177 1318.53 119.927 1320.2 121.593L1304.95 149.343ZM1385.39 310.593C1372.05 310.593 1360.47 308.177 1350.64 303.343C1340.97 298.343 1333.47 291.343 1328.14 282.343C1322.8 273.343 1320.14 262.76 1320.14 250.593C1320.14 238.26 1322.72 227.593 1327.89 218.593C1333.05 209.593 1340.47 202.677 1350.14 197.843C1359.97 193.01 1371.55 190.593 1384.89 190.593C1398.22 190.593 1409.47 192.927 1418.64 197.593C1427.8 202.093 1434.8 208.677 1439.64 217.343C1444.47 226.01 1446.89 236.51 1446.89 248.843C1446.89 250.677 1446.89 252.51 1446.89 254.343C1446.89 256.01 1446.72 257.427 1446.39 258.593H1341.39V237.593H1412.39L1403.39 249.093C1404.22 247.927 1404.89 246.51 1405.39 244.843C1406.05 243.01 1406.39 241.51 1406.39 240.343C1406.39 235.343 1405.47 231.01 1403.64 227.343C1401.8 223.677 1399.22 220.843 1395.89 218.843C1392.55 216.843 1388.64 215.843 1384.14 215.843C1378.47 215.843 1373.72 217.093 1369.89 219.593C1366.05 222.093 1363.14 225.927 1361.14 231.093C1359.3 236.093 1358.3 242.427 1358.14 250.093C1358.14 257.093 1359.14 263.093 1361.14 268.093C1363.14 273.093 1366.14 276.927 1370.14 279.593C1374.14 282.093 1379.05 283.343 1384.89 283.343C1391.55 283.343 1397.22 282.093 1401.89 279.593C1406.72 277.093 1410.55 273.343 1413.39 268.343L1447.14 276.593C1441.14 287.927 1432.97 296.427 1422.64 302.093C1412.47 307.76 1400.05 310.593 1385.39 310.593ZM1528.7 310.593C1515.36 310.593 1503.78 308.177 1493.95 303.343C1484.28 298.343 1476.78 291.343 1471.45 282.343C1466.11 273.343 1463.45 262.76 1463.45 250.593C1463.45 238.26 1466.03 227.593 1471.2 218.593C1476.36 209.593 1483.78 202.677 1493.45 197.843C1503.28 193.01 1514.86 190.593 1528.2 190.593C1541.53 190.593 1552.78 192.927 1561.95 197.593C1571.11 202.093 1578.11 208.677 1582.95 217.343C1587.78 226.01 1590.2 236.51 1590.2 248.843C1590.2 250.677 1590.2 252.51 1590.2 254.343C1590.2 256.01 1590.03 257.427 1589.7 258.593H1484.7V237.593H1555.7L1546.7 249.093C1547.53 247.927 1548.2 246.51 1548.7 244.843C1549.36 243.01 1549.7 241.51 1549.7 240.343C1549.7 235.343 1548.78 231.01 1546.95 227.343C1545.11 223.677 1542.53 220.843 1539.2 218.843C1535.86 216.843 1531.95 215.843 1527.45 215.843C1521.78 215.843 1517.03 217.093 1513.2 219.593C1509.36 222.093 1506.45 225.927 1504.45 231.093C1502.61 236.093 1501.61 242.427 1501.45 250.093C1501.45 257.093 1502.45 263.093 1504.45 268.093C1506.45 273.093 1509.45 276.927 1513.45 279.593C1517.45 282.093 1522.36 283.343 1528.2 283.343C1534.86 283.343 1540.53 282.093 1545.2 279.593C1550.03 277.093 1553.86 273.343 1556.7 268.343L1590.45 276.593C1584.45 287.927 1576.28 296.427 1565.95 302.093C1555.78 307.76 1543.36 310.593 1528.7 310.593Z" fill="#111111"/>
<defs>
<filter id="filter0_d_14_5" x="87.7826" y="44.0074" width="184" height="365.5" filterUnits="userSpaceOnUse" color-interpolation-filters="sRGB">
<feFlood flood-opacity="0" result="BackgroundImageFix"/>
<feColorMatrix in="SourceAlpha" type="matrix" values="0 0 0 0 0 0 0 0 0 0 0 0 0 0 0 0 0 0 127 0" result="hardAlpha"/>
<feOffset dy="4"/>
<feGaussianBlur stdDeviation="1"/>
<feComposite in2="hardAlpha" operator="out"/>
<feColorMatrix type="matrix" values="0 0 0 0 0 0 0 0 0 0 0 0 0 0 0 0 0 0 0.25 0"/>
<feBlend mode="normal" in2="BackgroundImageFix" result="effect1_dropShadow_14_5"/>
<feBlend mode="normal" in="SourceGraphic" in2="effect1_dropShadow_14_5" result="shape"/>
</filter>
<linearGradient id="paint0_linear_14_5" x1="0" y1="357.061" x2="339.48" y2="371.025" gradientUnits="userSpaceOnUse">
<stop stop-color="#A96F44"/>
<stop offset="1" stop-color="#F2ECB6"/>
</linearGradient>
<linearGradient id="paint1_linear_14_5" x1="298" y1="255.561" x2="566.5" y2="137.561" gradientUnits="userSpaceOnUse">
<stop stop-color="#A96F44"/>
<stop offset="1" stop-color="#F2ECB6"/>
</linearGradient>
</defs>
</svg>
