<svg width="29" height="28" viewBox="0 0 29 28" fill="none" xmlns="http://www.w3.org/2000/svg">
<rect x="7" y="6.5" width="15" height="15" rx="7.5" stroke="#C38154"/>
<rect x="11" y="1.5" width="7" height="3" rx="0.5" stroke="#C38154"/>
<path d="M10.5 0.5C10.5 0.223858 10.7239 0 11 0H18C18.2761 0 18.5 0.223858 18.5 0.5C18.5 0.776142 18.2761 1 18 1H11C10.7239 1 10.5 0.776142 10.5 0.5Z" fill="#C38154"/>
<rect x="2" y="17.5" width="7" height="3" rx="0.5" transform="rotate(-90 2 17.5)" stroke="#C38154"/>
<path d="M1 18C0.723858 18 0.5 17.7761 0.5 17.5L0.5 10.5C0.5 10.2239 0.723858 10 1 10C1.27614 10 1.5 10.2239 1.5 10.5L1.5 17.5C1.5 17.7761 1.27614 18 1 18Z" fill="#C38154"/>
<rect x="0.5" y="-0.5" width="7" height="3" rx="0.5" transform="matrix(1 0 0 -1 10.5 26)" stroke="#C38154"/>
<path d="M10.5 27.5C10.5 27.7761 10.7239 28 11 28H18C18.2761 28 18.5 27.7761 18.5 27.5C18.5 27.2239 18.2761 27 18 27H11C10.7239 27 10.5 27.2239 10.5 27.5Z" fill="#C38154"/>
<rect x="-0.5" y="-0.5" width="7" height="3" rx="0.5" transform="matrix(0 -1 -1 0 26.5 17)" stroke="#C38154"/>
<path d="M28 18C28.2761 18 28.5 17.7761 28.5 17.5V10.5C28.5 10.2239 28.2761 10 28 10C27.7239 10 27.5 10.2239 27.5 10.5V17.5C27.5 17.7761 27.7239 18 28 18Z" fill="#C38154"/>
</svg>
